# xmcd
#
# Track frame offsets:
#	150
#	12093
#	23110
#	37208
#	46625
#	58980
#	69883
#	82348
#	96688
#	111848
#	127538
#	139170
#	153600
#	166540
#	180793
#	193319
#
# Disc length: 2719 seconds
#
# Revision: 1
# Processed by: cddbd v1.5PL3 Copyright (c) Steve Scherf et al.
# Submitted via: EasyCDDAExtractor 7.0.0.1
#
DISCID=d20a9d10
DTITLE=Ray Charles
DYEAR=1900
DGENRE=
TTITLE0=Tell Me Baby
TTITLE1=I Wonder Who's Kissing Her Now
TTITLE2=I'm  Going down To The River
TTITLE3=All To Myself Alone
TTITLE4=See See River
TTITLE5=Hey Now
TTITLE6=I'm Glad For Your Shake
TTITLE7=Walkin' And Talking
TTITLE8=I'm Wondering And Wondering
TTITLE9=I found My Baby There
TTITLE10=Guitar Blues
TTITLE11=Some Day (Blues Is My Middle Name)
TTITLE12=I User To Be So Happy
TTITLE13=Kissa Me Baby
TTITLE14=I Love You, I Love You
TTITLE15=She's As Sweet As She Can Be
EXTD=
EXTT0=
EXTT1=
EXTT2=
EXTT3=
EXTT4=
EXTT5=
EXTT6=
EXTT7=
EXTT8=
EXTT9=
EXTT10=
EXTT11=
EXTT12=
EXTT13=
EXTT14=
EXTT15=
PLAYORDER=
